<mxfile host="Electron" agent="Mozilla/5.0 (Windows NT 10.0; Win64; x64) AppleWebKit/537.36 (KHTML, like Gecko) draw.io/26.2.2 Chrome/134.0.6998.178 Electron/35.1.2 Safari/537.36" version="26.2.2">
  <diagram name="Page-1" id="mo2MrHEueCLznRRRhLnn">
    <mxGraphModel dx="1030" dy="619" grid="1" gridSize="10" guides="1" tooltips="1" connect="1" arrows="1" fold="1" page="1" pageScale="1" pageWidth="827" pageHeight="1169" math="0" shadow="0">
      <root>
        <mxCell id="0" />
        <mxCell id="1" parent="0" />
        <mxCell id="59s3J01RVuXaNFxz1JJ4-15" value="" style="edgeStyle=orthogonalEdgeStyle;rounded=0;orthogonalLoop=1;jettySize=auto;html=1;" edge="1" parent="1" source="59s3J01RVuXaNFxz1JJ4-3" target="59s3J01RVuXaNFxz1JJ4-4">
          <mxGeometry relative="1" as="geometry" />
        </mxCell>
        <mxCell id="59s3J01RVuXaNFxz1JJ4-3" value="&amp;nbsp;Start" style="rounded=1;whiteSpace=wrap;html=1;" vertex="1" parent="1">
          <mxGeometry x="350" y="20" width="120" height="60" as="geometry" />
        </mxCell>
        <mxCell id="59s3J01RVuXaNFxz1JJ4-13" style="edgeStyle=orthogonalEdgeStyle;rounded=0;orthogonalLoop=1;jettySize=auto;html=1;entryX=0.5;entryY=0;entryDx=0;entryDy=0;" edge="1" parent="1" source="59s3J01RVuXaNFxz1JJ4-4" target="59s3J01RVuXaNFxz1JJ4-7">
          <mxGeometry relative="1" as="geometry" />
        </mxCell>
        <mxCell id="59s3J01RVuXaNFxz1JJ4-14" value="NO" style="edgeLabel;html=1;align=center;verticalAlign=middle;resizable=0;points=[];" vertex="1" connectable="0" parent="59s3J01RVuXaNFxz1JJ4-13">
          <mxGeometry x="-0.4358" y="1" relative="1" as="geometry">
            <mxPoint as="offset" />
          </mxGeometry>
        </mxCell>
        <mxCell id="59s3J01RVuXaNFxz1JJ4-18" value="" style="edgeStyle=orthogonalEdgeStyle;rounded=0;orthogonalLoop=1;jettySize=auto;html=1;" edge="1" parent="1" source="59s3J01RVuXaNFxz1JJ4-4" target="59s3J01RVuXaNFxz1JJ4-12">
          <mxGeometry relative="1" as="geometry" />
        </mxCell>
        <mxCell id="59s3J01RVuXaNFxz1JJ4-4" value="Is the board square?&amp;nbsp;" style="rhombus;whiteSpace=wrap;html=1;" vertex="1" parent="1">
          <mxGeometry x="290" y="120" width="240" height="80" as="geometry" />
        </mxCell>
        <mxCell id="59s3J01RVuXaNFxz1JJ4-7" value="Return False" style="whiteSpace=wrap;html=1;" vertex="1" parent="1">
          <mxGeometry x="630" y="235" width="120" height="60" as="geometry" />
        </mxCell>
        <mxCell id="59s3J01RVuXaNFxz1JJ4-26" value="" style="edgeStyle=orthogonalEdgeStyle;rounded=0;orthogonalLoop=1;jettySize=auto;html=1;" edge="1" parent="1" source="59s3J01RVuXaNFxz1JJ4-9">
          <mxGeometry relative="1" as="geometry">
            <mxPoint x="414" y="540" as="targetPoint" />
          </mxGeometry>
        </mxCell>
        <mxCell id="59s3J01RVuXaNFxz1JJ4-9" value="Check for duplicates in&amp;nbsp;&amp;nbsp;&lt;div&gt;rows and columns&amp;nbsp;&lt;/div&gt;" style="rhombus;whiteSpace=wrap;html=1;" vertex="1" parent="1">
          <mxGeometry x="295" y="430" width="235" height="80" as="geometry" />
        </mxCell>
        <mxCell id="59s3J01RVuXaNFxz1JJ4-11" value="&amp;nbsp;Return True&amp;nbsp; &amp;nbsp;" style="rounded=1;whiteSpace=wrap;html=1;" vertex="1" parent="1">
          <mxGeometry x="352.5" y="640" width="120" height="60" as="geometry" />
        </mxCell>
        <mxCell id="59s3J01RVuXaNFxz1JJ4-16" style="edgeStyle=orthogonalEdgeStyle;rounded=0;orthogonalLoop=1;jettySize=auto;html=1;entryX=0;entryY=0.5;entryDx=0;entryDy=0;" edge="1" parent="1" source="59s3J01RVuXaNFxz1JJ4-12" target="59s3J01RVuXaNFxz1JJ4-7">
          <mxGeometry relative="1" as="geometry" />
        </mxCell>
        <mxCell id="59s3J01RVuXaNFxz1JJ4-17" value="yes" style="edgeLabel;html=1;align=center;verticalAlign=middle;resizable=0;points=[];" vertex="1" connectable="0" parent="59s3J01RVuXaNFxz1JJ4-16">
          <mxGeometry x="0.052" y="1" relative="1" as="geometry">
            <mxPoint as="offset" />
          </mxGeometry>
        </mxCell>
        <mxCell id="59s3J01RVuXaNFxz1JJ4-24" value="" style="edgeStyle=orthogonalEdgeStyle;rounded=0;orthogonalLoop=1;jettySize=auto;html=1;" edge="1" parent="1" source="59s3J01RVuXaNFxz1JJ4-12" target="59s3J01RVuXaNFxz1JJ4-19">
          <mxGeometry relative="1" as="geometry" />
        </mxCell>
        <mxCell id="59s3J01RVuXaNFxz1JJ4-12" value="&amp;nbsp;Is the board completely&lt;div&gt;&amp;nbsp;empty (all &#39;-&#39;)?&amp;nbsp; &amp;nbsp;&lt;/div&gt;" style="rhombus;whiteSpace=wrap;html=1;" vertex="1" parent="1">
          <mxGeometry x="290" y="220" width="240" height="90" as="geometry" />
        </mxCell>
        <mxCell id="59s3J01RVuXaNFxz1JJ4-20" style="edgeStyle=orthogonalEdgeStyle;rounded=0;orthogonalLoop=1;jettySize=auto;html=1;entryX=0.5;entryY=1;entryDx=0;entryDy=0;" edge="1" parent="1" source="59s3J01RVuXaNFxz1JJ4-19" target="59s3J01RVuXaNFxz1JJ4-7">
          <mxGeometry relative="1" as="geometry" />
        </mxCell>
        <mxCell id="59s3J01RVuXaNFxz1JJ4-21" value="yes" style="edgeLabel;html=1;align=center;verticalAlign=middle;resizable=0;points=[];" vertex="1" connectable="0" parent="59s3J01RVuXaNFxz1JJ4-20">
          <mxGeometry x="-0.4237" y="-1" relative="1" as="geometry">
            <mxPoint as="offset" />
          </mxGeometry>
        </mxCell>
        <mxCell id="59s3J01RVuXaNFxz1JJ4-25" value="" style="edgeStyle=orthogonalEdgeStyle;rounded=0;orthogonalLoop=1;jettySize=auto;html=1;" edge="1" parent="1" source="59s3J01RVuXaNFxz1JJ4-19" target="59s3J01RVuXaNFxz1JJ4-9">
          <mxGeometry relative="1" as="geometry" />
        </mxCell>
        <mxCell id="59s3J01RVuXaNFxz1JJ4-19" value="Are there any invalid&amp;nbsp;&amp;nbsp;&lt;div&gt;characters?&amp;nbsp;&amp;nbsp;&lt;/div&gt;" style="rhombus;whiteSpace=wrap;html=1;" vertex="1" parent="1">
          <mxGeometry x="300" y="330" width="220" height="80" as="geometry" />
        </mxCell>
        <mxCell id="59s3J01RVuXaNFxz1JJ4-22" style="edgeStyle=orthogonalEdgeStyle;rounded=0;orthogonalLoop=1;jettySize=auto;html=1;entryX=0.643;entryY=0.973;entryDx=0;entryDy=0;entryPerimeter=0;" edge="1" parent="1" source="59s3J01RVuXaNFxz1JJ4-9" target="59s3J01RVuXaNFxz1JJ4-7">
          <mxGeometry relative="1" as="geometry" />
        </mxCell>
        <mxCell id="59s3J01RVuXaNFxz1JJ4-23" value="yes" style="edgeLabel;html=1;align=center;verticalAlign=middle;resizable=0;points=[];" vertex="1" connectable="0" parent="59s3J01RVuXaNFxz1JJ4-22">
          <mxGeometry x="-0.5274" y="-3" relative="1" as="geometry">
            <mxPoint as="offset" />
          </mxGeometry>
        </mxCell>
        <mxCell id="59s3J01RVuXaNFxz1JJ4-28" style="edgeStyle=orthogonalEdgeStyle;rounded=0;orthogonalLoop=1;jettySize=auto;html=1;entryX=0.75;entryY=1;entryDx=0;entryDy=0;" edge="1" parent="1" source="59s3J01RVuXaNFxz1JJ4-27" target="59s3J01RVuXaNFxz1JJ4-7">
          <mxGeometry relative="1" as="geometry" />
        </mxCell>
        <mxCell id="59s3J01RVuXaNFxz1JJ4-30" value="yes" style="edgeLabel;html=1;align=center;verticalAlign=middle;resizable=0;points=[];" vertex="1" connectable="0" parent="59s3J01RVuXaNFxz1JJ4-28">
          <mxGeometry x="-0.6498" relative="1" as="geometry">
            <mxPoint as="offset" />
          </mxGeometry>
        </mxCell>
        <mxCell id="59s3J01RVuXaNFxz1JJ4-29" value="" style="edgeStyle=orthogonalEdgeStyle;rounded=0;orthogonalLoop=1;jettySize=auto;html=1;" edge="1" parent="1" source="59s3J01RVuXaNFxz1JJ4-27" target="59s3J01RVuXaNFxz1JJ4-11">
          <mxGeometry relative="1" as="geometry" />
        </mxCell>
        <mxCell id="59s3J01RVuXaNFxz1JJ4-27" value="Check for duplicates in&amp;nbsp;&lt;div&gt;subgrids (boxes)&amp;nbsp;&lt;/div&gt;" style="rhombus;whiteSpace=wrap;html=1;" vertex="1" parent="1">
          <mxGeometry x="287.5" y="530" width="250" height="80" as="geometry" />
        </mxCell>
      </root>
    </mxGraphModel>
  </diagram>
</mxfile>
